<?xml version="1.0" standalone="no"?><!DOCTYPE svg PUBLIC "-//W3C//DTD SVG 1.1//EN" "http://www.w3.org/Graphics/SVG/1.1/DTD/svg11.dtd"><svg t="1760541253411" class="icon" viewBox="0 0 1024 1024" version="1.1" xmlns="http://www.w3.org/2000/svg" p-id="5647" xmlns:xlink="http://www.w3.org/1999/xlink" width="200" height="200"><path d="M640 224c19.2 0 38.4 9.6 51.2 25.6l118.4 156.8c19.2 25.6 16 57.6-3.2 80l-246.4 275.2c-22.4 25.6-64 28.8-89.6 6.4-3.2 0-3.2-3.2-3.2-3.2l-249.6-275.2c-19.2-22.4-22.4-57.6-3.2-83.2l118.4-156.8c12.8-16 32-25.6 51.2-25.6h256z m0 64h-256l-118.4 156.8 246.4 275.2 246.4-275.2L640 288z m-32 96c19.2 0 32 12.8 32 32s-12.8 32-32 32h-192c-19.2 0-32-12.8-32-32s12.8-32 32-32h192z" fill="#202425" p-id="5648"></path></svg>